<?xml version="1.0" encoding="UTF-8"?>
<svg id="Layer_1" data-name="Layer 1" xmlns="http://www.w3.org/2000/svg" viewBox="0 0 1000 1000">
  <defs>
    <style>
      .cls-1 {
        fill: #fff;
      }
    </style>
  </defs>
  <path class="cls-1" d="M533.71,0l49.18,6.43c207.94,34.25,376.22,203.27,410.68,411.31l6.42,49.26v66.44l-6.42,49.26c-34.2,208.25-202.96,376.79-410.68,411.31l-49.18,6.43c-21.84-.97-44.61,1.32-66.33,0C198.24,984.13-11.39,744.82,1,475.7,12.49,226.19,218.4,15.08,467.38,0h66.33ZM471.28,64.48c-69.31,25.97-109.36,103.93-132.67,170h132.67V64.48ZM662.48,234.48c-23.31-66.06-63.36-144.03-132.67-170v170h132.67ZM149.37,234.48h126.81c6.44-28.46,20.41-54.14,31.45-80.85l41.69-67.67c-79.23,28.59-149.6,81.11-199.96,148.52ZM851.72,234.48c-50.36-67.41-120.73-119.93-199.96-148.52l41.69,67.67c11.05,26.71,25.01,52.4,31.45,80.85h126.81ZM258.62,293.1H110.35c-26.47,55.71-46.75,115.36-48.77,177.81h173.64c2.77-59.85,9.17-119.67,23.41-177.81ZM471.28,293.1h-152.18c-6.48,28.81-13.36,57.85-17.31,87.2-4.04,30.02-4.72,60.54-8.05,90.61h177.54v-177.81ZM681.99,293.1h-152.18v177.81h177.54c-3.34-30.07-4.02-60.59-8.05-90.61-3.95-29.35-10.83-58.39-17.31-87.2ZM890.74,293.1h-148.28c14.14,58.17,20.72,117.94,23.41,177.81h173.64c-2.02-62.4-22.41-122.13-48.77-177.81ZM235.21,529.53H61.57c2.02,62.4,22.41,122.13,48.77,177.81h148.28c-14.14-58.17-20.72-117.94-23.41-177.81ZM471.28,529.53h-177.54c3.34,30.07,4.02,60.59,8.05,90.61,3.95,29.35,10.83,58.39,17.31,87.2h152.18v-177.81ZM707.35,529.53h-177.54v177.81h152.18c6.48-28.81,13.36-57.85,17.31-87.2,4.04-30.02,4.72-60.54,8.05-90.61ZM939.52,529.53h-173.64c-2.69,59.87-9.27,119.64-23.41,177.81h148.28c26.37-55.69,46.75-115.41,48.77-177.81ZM276.18,765.96h-126.81c50.36,67.41,120.73,119.93,199.96,148.52l-41.69-67.67c-11.05-26.71-25.01-52.4-31.45-80.85ZM471.28,765.96h-132.67c23.31,66.06,63.36,144.03,132.67,170v-170ZM662.48,765.96h-132.67v170c69.49-26.02,109.25-103.83,132.67-170ZM851.72,765.96h-126.81c-6.58,28.35-20.47,54.16-31.45,80.85l-41.69,67.67c79.43-28.47,149.22-81.41,199.96-148.52Z"/>
</svg>