<?xml version="1.0" encoding="UTF-8"?>
<svg id="Layer_1" data-name="Layer 1" xmlns="http://www.w3.org/2000/svg" viewBox="0 0 1000 1000">
  <defs>
    <style>
      .cls-1 {
        fill: #fff;
      }
    </style>
  </defs>
  <path class="cls-1" d="M156.49,18.29c213.25,11.74,457.52-22.56,667.22-1.9,97.42,9.6,161.5,73.53,171.12,170.68-11.62,197.2,15.72,412.03.35,607.07-8.47,107.45-69.47,176.5-178.72,185.86-161.81,13.85-469.98,13.84-631.79,0-101.31-8.67-168.25-68.78-178.38-171.03-19.66-198.56,14.45-427.61.02-629.47C14.71,95.95,73.85,32.64,156.49,18.29ZM445.12,200.01c-54.19,16.02-29.25,116.37-21.78,155.05,3.1,16.05,14.49,30.83,16.22,45.05,3.54,29.25-59.44,185.65-80,207.6-26.95,28.78-118.3,41.36-154.32,96.39-46.87,71.62,23.14,114.06,92.56,77.16,63.96-34,107.13-146.56,141.83-161.96,37.58-16.69,93.49-21.48,133.77-33.44,40.16,23.3,81.25,60.32,129.35,66.97,26.8,3.71,90.36,5.72,100.53-27.32,27.3-88.74-107.27-87.64-161.93-85.74-21.86.76-39.91,17.57-60.84-.16-11.45-9.7-70.98-90.05-72.21-102.57-2.11-21.51,20.17-76.32,22.55-106.03,4.55-56.96-3.71-155.26-85.73-131.01Z"/>
  <path class="cls-1" d="M742,579.54l6.15,28.34c-19.42,40.07-102.22-9.24-125.99-26.42.12-13.44,102.82-18.28,119.83-1.92Z"/>
  <path class="cls-1" d="M333.2,661.16c8.03,7.83-67.83,96.57-87.7,98.81-82.25,9.27,56.21-106.64,87.7-98.81Z"/>
  <path class="cls-1" d="M470.06,365.23c-10.94,1.8-10.28-13.19-12.81-21.15-6.79-21.35-22.33-107.74,1.56-115.28,52.91-16.72,9.57,116.74,11.26,136.44Z"/>
  <path class="cls-1" d="M454.97,577.64l34.14-90.97,49.32,64.45c-.07,10.79-69.25,22.03-83.46,26.51Z"/>
</svg>