<?xml version="1.0" encoding="UTF-8"?>
<svg id="Layer_1" data-name="Layer 1" xmlns="http://www.w3.org/2000/svg" viewBox="0 0 1000 1000">
  <defs>
    <style>
      .cls-1 {
        fill: #fff;
      }
    </style>
  </defs>
  <path class="cls-1" d="M160.79,24.44c209.8,13.13,456.7-24.23,662.21-1.98,90.65,9.81,151.52,78.73,160.31,167.58,14.94,150.87,11.94,442.28.39,595.68-7.76,103.06-62.03,171.49-168.28,181.96-195.6,19.27-420.77-14.5-619.59.39-103.86-7.78-165.43-56.02-182.54-160.3,16.6-200.06-22.44-436.15.87-631.87C23.46,97.88,83.74,37.3,160.79,24.44ZM528.23,692.33l-142.43-419.85c-15.84-21.79-84.44-11.04-111.79-8.59l-140.87,416.77c4.39,18.36,66.09,13.38,81.81,8.11l38.22-99.58,152.04,6.29,34.69,95.62,88.34,1.22ZM841.61,550.95c46.46-246.83-298.3-255.93-291.43-10.94,4.08,145.32,153.7,197.36,268.02,132.73l1.02-62.28c-72.67,8.03-154.1,30.33-179.08-59.51h201.47Z"/>
  <path class="cls-1" d="M334.13,357.42l44.84,148.8-96.98.03c-5.23-4.91,30.78-122.74,36.52-138.44,3.78-10.34-2.6-12.67,15.62-10.38Z"/>
  <path class="cls-1" d="M759.53,491.4h-119.39c16.6-75.29,111.85-83.29,119.39,0Z"/>
</svg>