<?xml version="1.0" encoding="UTF-8"?>
<svg id="Layer_1" data-name="Layer 1" xmlns="http://www.w3.org/2000/svg" viewBox="0 0 1000 1000">
  <defs>
    <style>
      .cls-1 {
        fill: #fff;
      }
    </style>
  </defs>
  <path class="cls-1" d="M155.8,24.01c214.27,12.07,460.65-22.96,671.24-1.88,94.43,9.46,153.53,77.51,162.67,169.77,15.15,152.94,12.11,448.42.4,603.92-7.87,104.49-62.89,173.86-170.61,184.48-198.3,19.54-426.59-14.7-628.16.4-105.57-4.23-174.49-64.55-184.95-170.18-19.75-199.36,13.9-430.24.77-632.94C18.66,97.58,75.78,37.72,155.8,24.01ZM684.98,234.82c-63.59,19.25-34.93,123.5,34.63,102.64,59.06-17.71,35.63-123.91-34.63-102.64ZM611.49,701.13l-147.38-430.19-110.32-4.17-143.2,434.36,83.33-3.6,38.75-100.95,151.1,3.43,36.67,97.69,91.06,3.43ZM747.69,369.15h-90.78v332.02h90.78v-332.02Z"/>
  <path class="cls-1" d="M460.22,512.52h-105.91l45.47-158.45c36.36,41.49,34.99,109.29,60.44,158.45Z"/>
</svg>