<?xml version="1.0" encoding="UTF-8"?>
<svg id="Layer_1" data-name="Layer 1" xmlns="http://www.w3.org/2000/svg" viewBox="0 0 1000 1000">
  <defs>
    <style>
      .cls-1 {
        fill: #fff;
      }
    </style>
  </defs>
  <path class="cls-1" d="M185.9,357.36c-53.15-5.38-55.54-62.21-12.35-87.43,30.01-17.52,86.46-10.59,121.96-10.94,2.4-.02,4.62-1.08,7.02-1.1,103.31-.94,206.68.8,309.98.03l-134.47-109.53c-37.65-53.23,51.48-86.13,87.71-54.23,102.41,82.25,210.99,157.25,313.03,239.9,204.03,165.28,137.5,452.56-102.41,536.69-147.71,51.8-323.34,6.36-415.87-121.88-36.59-50.72-60.67-116.17-52.36-179.46-1.77-.47-2.03.75-3.04,1.51-65.1,49.29-126.02,107.65-191.28,156.71-24.56,18.46-55.9,30.46-85.73,15.81-44.42-21.81-31.66-80.27,1.05-106.59l365.25-279.5h-208.49ZM632.59,357.66c-150.32,10.95-253.41,175.52-152.96,303.54,105.58,134.57,354.42,92.23,383.15-82.47,22.39-136.13-103.12-230.32-230.19-221.07Z"/>
  <path class="cls-1" d="M639.7,418.54c85.07-6.64,169.22,61.51,144.53,151.64-30.38,110.92-197.86,124.01-252.04,24.26-44.55-82.01,21.33-169.17,107.51-175.9Z"/>
</svg>