<?xml version="1.0" encoding="UTF-8"?>
<svg id="Layer_1" data-name="Layer 1" xmlns="http://www.w3.org/2000/svg" viewBox="0 0 1000 1000">
  <defs>
    <style>
      .cls-1 {
        fill: #fff;
      }
    </style>
  </defs>
  <path class="cls-1" d="M848.7,202.44v8.73l-62.82,699.32-282.24,79.9h-3.97l-282.29-79.86-63.57-705.71v-2.38h694.88ZM718.61,347.65h-433.9l7.93,86.49h331.57l-7.93,89.67h-315.71l7.14,85.7h300.24c.4,0,1.31,1.31,1.22,1.97l-10.73,111.51-94.59,25.98h-5.18s-94.01-25.38-94.01-25.38l-6.52-69.65h-85.67l11.96,135.23,1.85,1.32,175.38,48.4,177.31-48.85,39.64-442.4Z"/>
  <polygon class="cls-1" points="676.57 9.61 676.57 48.5 615.49 48.5 615.49 55.64 676.57 55.64 676.57 144.51 570.27 144.51 570.27 103.25 631.35 103.25 631.35 96.11 570.27 96.11 570.27 9.61 676.57 9.61"/>
  <polygon class="cls-1" points="550.44 9.61 550.44 48.5 489.36 48.5 489.36 55.64 550.44 55.64 550.44 143.32 549.25 144.51 444.15 144.51 444.15 103.25 505.23 103.25 505.23 96.11 444.15 96.11 444.15 9.61 550.44 9.61"/>
  <path class="cls-1" d="M424.32,9.61v44.44h-61.08c.43,1.01-.79,2.35-.79,2.78v40.87h61.87v44.44h-106.29V9.61h106.29Z"/>
</svg>