<?xml version="1.0" encoding="UTF-8"?>
<svg id="Layer_1" data-name="Layer 1" xmlns="http://www.w3.org/2000/svg" viewBox="0 0 1000 1000">
  <defs>
    <style>
      .cls-1 {
        fill: #fff;
      }
    </style>
  </defs>
  <path class="cls-1" d="M561.21,635.96v189.34c0,47.62-55.85,118.25-99.16,138.69-209.36,98.8-368.47-179.48-183.84-309.46-78.13-62.1-109.06-156.8-53.41-246.46,13.92-22.43,36.08-33.47,45.57-56.96-105.57-81.99-96.43-259.64,30.3-312.86,63.58-26.7,321.97-26.51,397.45-17.76,127.46,14.76,205.31,140.23,150.03,259.43-14.06,30.32-40.29,48.64-55.64,76.59,191.62,166.36-31.87,433.44-231.3,279.46ZM501.66,79.08h-152.6c-47.22,0-93.65,77.44-93.65,122.51s46.44,122.51,93.65,122.51h152.6V79.08ZM561.21,324.11h152.6c47.22,0,93.65-77.44,93.65-122.51s-46.44-122.51-93.65-122.51h-152.6v245.03ZM501.66,383.51h-160.05c-10.34,0-50.91,33.68-59.71,44.4-55.39,67.5-21.45,170.29,61.55,191.36,40.95,10.39,121.77,18.23,158.2-1.87v-233.89ZM774.47,588.82c119.46-125.62-87.3-295.86-190.88-157-94.01,126.04,92.13,260.83,190.88,157ZM501.66,680.51h-145.16c-33.03,0-85.85,50.02-95.48,82.95-37.61,128.6,112.15,216.78,203.65,128.89,9.35-8.98,36.98-49.8,36.98-59.63v-152.21Z"/>
</svg>