<?xml version="1.0" encoding="UTF-8"?>
<svg id="Layer_1" data-name="Layer 1" xmlns="http://www.w3.org/2000/svg" viewBox="0 0 1000 1000">
  <defs>
    <style>
      .cls-1 {
        fill: #fff;
      }
    </style>
  </defs>
  <polygon class="cls-1" points="557.91 9.61 585.58 55.73 614 9.61 660.87 9.61 660.87 141.81 616.3 141.81 616.3 77.25 585.94 123.36 554.83 77.25 554.83 141.81 511.81 141.81 511.81 9.61 557.91 9.61"/>
  <polygon class="cls-1" points="265.94 9.61 265.9 50.77 267.09 53.42 306.66 53.42 306.66 9.61 351.22 9.61 351.22 141.81 306.66 141.81 306.66 98 265.94 98 265.94 141.81 222.14 141.81 222.14 9.61 265.94 9.61"/>
  <polygon class="cls-1" points="492.6 9.61 492.6 53.42 453.41 53.42 453.41 141.81 408.85 141.81 408.85 53.42 369.66 53.42 369.66 9.61 492.6 9.61"/>
  <polygon class="cls-1" points="726.94 9.61 726.94 98 789.18 98 789.18 141.81 682.38 141.81 682.38 9.61 726.94 9.61"/>
  <path class="cls-1" d="M852.18,202.53l-63.1,709.31-284.57,78.55-283.8-78.56-63.11-709.3h694.58ZM381.96,434.64h332.31l7.68-87.62h-435.26l23.05,263.63h300.81l-9.21,112.23-96.41,26.56-96.86-26.16-7.27-69.58h-86.05l11.21,137.51,178.56,49.27,178.53-49.33,23.6-267.39-315.73-.06-8.94-89.05Z"/>
</svg>