<?xml version="1.0" encoding="UTF-8"?>
<svg id="Layer_1" data-name="Layer 1" xmlns="http://www.w3.org/2000/svg" viewBox="0 0 1000 1000">
  <defs>
    <style>
      .cls-1 {
        fill: #fff;
      }
    </style>
  </defs>
  <path class="cls-1" d="M156.31,23.72c212.57,13.31,462.73-24.55,670.96-2.01,91.84,9.94,153.52,79.77,162.43,169.8,15.14,152.87,12.1,448.13.4,603.55-7.87,104.43-62.85,173.76-170.51,184.36-198.18,19.53-426.33-14.69-627.78.4-103.12-7.72-170.51-57.4-184.82-162.55,16.56-202.61-22.86-441.88.75-640.08C17.17,98.13,78.24,36.75,156.31,23.72ZM732.73,232.91h-98.29v128.2c-142.45-1.6-231.64,89.45-200.77,234.19,26.04,122.1,209.29,135.62,299.06,78.77V232.91ZM362.26,263.08c-29.17,3.91-68.78-10.8-90.73,11.31v426.08h90.73v-437.39Z"/>
  <path class="cls-1" d="M634.44,444.07v180.99c-153.96,20.7-154.11-203.89,0-180.99Z"/>
</svg>