<?xml version="1.0" encoding="UTF-8"?>
<svg id="Layer_1" data-name="Layer 1" xmlns="http://www.w3.org/2000/svg" viewBox="0 0 1000 1000">
  <defs>
    <style>
      .cls-1 {
        fill: #fff;
      }
    </style>
  </defs>
  <path class="cls-1" d="M174.76,33.32c198.87-23.78,434.14,13.3,636.89-1.97,106.88,9.68,168.78,78.12,177.1,183.35,12.06,152.6,11.99,417.88,0,570.53-8.16,103.9-62.1,172.82-169.52,183.41-199.46,19.65-429.11-14.78-631.85.39-93.89-2.01-166.91-68.52-176.29-161.66,16.06-196.79-22.18-429.05.74-621.57C22.32,97.76,89.43,43.53,174.76,33.32ZM281.69,278.72h-127.82l-22.59,412.53h82.78s11.24-330.1,11.24-330.1l86.34,326.45,79.27-3.69,82.52-315.26,11.24,322.61h82.79s-15.08-412.53-15.08-412.53h-120.3l-78.95,285.07-71.43-285.07ZM680.2,556.22h176.7c44.42,0,23.64-88.13,10.34-115.31-58.44-119.37-235.4-88.88-273.63,32.69-52.86,168.11,100.46,269.25,250.96,209.06l.98-73.94c-55.3,25.33-160.85,26.67-165.34-52.5Z"/>
  <path class="cls-1" d="M792.98,496.22h-112.79c3.36-79.97,109.42-79.97,112.79,0Z"/>
</svg>