<?xml version="1.0" encoding="UTF-8"?>
<svg id="Layer_1" data-name="Layer 1" xmlns="http://www.w3.org/2000/svg" viewBox="0 0 1000 1000">
  <defs>
    <style>
      .cls-1 {
        fill: #fff;
      }
    </style>
  </defs>
  <path class="cls-1" d="M161.28,34.79c207.66,12.98,451.95-23.96,655.37-1.96,90.8,9.82,149.85,76.96,158.66,165.85,14.79,149.31,11.82,437.72.39,589.52-7.68,102-61.39,169.72-166.55,180.08-193.58,19.07-416.42-14.35-613.19.39-102.78-7.7-163.72-55.44-180.66-158.64,16.43-197.99-22.21-431.64.86-625.34C25.37,107.46,85.03,47.51,161.28,34.79ZM410.45,268.58c-51.28-6.33-113.55,4.65-166.16,0v427.23l85.39-6.9,3.19-125.73c75.43,2.47,166.25-6.89,199.59-84.51,41.78-97.26-17.12-197.13-122.01-210.09ZM598.76,371.7v324.1l92.78-6.9,4.26-213.04,102.78-27.41c19.16-113.19-43.09-94.96-107.55-39.95l-11.91-35.91-80.37-.88Z"/>
  <path class="cls-1" d="M332.9,482.19v-132.59c168.8-25.1,168.76,157.7,0,132.59Z"/>
</svg>