<?xml version="1.0" encoding="UTF-8"?>
<svg id="Layer_1" data-name="Layer 1" xmlns="http://www.w3.org/2000/svg" viewBox="0 0 1000 1000">
  <defs>
    <style>
      .cls-1 {
        fill: #fff;
      }
    </style>
  </defs>
  <path class="cls-1" d="M156.71,23.99c213.9,12.04,459.84-22.92,670.06-1.87,94.26,9.44,153.26,77.37,162.38,169.47,15.12,152.67,12.09,447.63.4,602.85-7.86,104.31-62.78,173.56-170.31,184.15-197.95,19.5-425.84-14.67-627.05.39-103-7.71-170.31-57.33-184.61-162.36,16.54-202.37-22.83-441.37.75-639.34C17.73,98.31,78.73,37.01,156.71,23.99ZM317.11,564.37c143.01,27.61,290.11-103.84,192.06-240.54-19.11-26.64-81.27-60.77-112.77-60.77h-158.59l-11.33,11.3v425.59h90.62v-135.59ZM799.6,376.86c-86.74-25.65-242.41-11.36-216.42,114.25,16.08,77.69,107.18,68.93,134.22,99.55,53.85,60.98-111.6,42.55-135.9,11.38-1.35,70.47-14.38,95.35,64.94,104.61,83.51,9.76,176.37-16.39,169.5-116.22-5.91-85.91-105.57-73.79-149.11-127.55l10.18-19.39c44.09-1.99,82.09-.2,123.37,15.4l-.78-82.03Z"/>
  <path class="cls-1" d="M317.11,481.51v-135.59c176.36-27.83,176.08,164.76,0,135.59Z"/>
</svg>