<?xml version="1.0" encoding="UTF-8"?>
<svg id="Layer_1" data-name="Layer 1" xmlns="http://www.w3.org/2000/svg" viewBox="0 0 1000 1000">
  <defs>
    <style>
      .cls-1 {
        fill: #fcb337;
      }

      .cls-2 {
        fill: #f27f21;
      }

      .cls-3 {
        fill: #fcb336;
      }
    </style>
  </defs>
  <circle class="cls-3" cx="500" cy="500" r="500"/>
  <path class="cls-2" d="M460.49,119.58c302.83-24.79,516.99,287.22,372.76,558.42-132.68,249.47-485.51,269.97-647.23,37.88C21.66,479.99,173.84,143.04,460.49,119.58ZM735.58,257.51c-166.39-164-452.13-112.01-545.99,102.51-113.31,258.97,117.48,534.54,391.76,466.12,253.19-63.16,340.45-385.08,154.23-568.63Z"/>
  <path class="cls-1" d="M716.08,277.34c170.88,168.43,90.8,463.83-141.53,521.79-251.68,62.79-463.46-190.09-359.49-427.72,86.13-196.85,348.32-244.56,501.01-94.07ZM583.8,395.09l-55.4-101.43c-15.14-21.22-45.37-21.18-60.46,0l-55.46,101.36c-35.6,11.48-82.06,11.48-116.63,23.15-23.59,7.96-33.31,35.61-18.48,56.11l79.38,86.03-13.92,118.39c2.83,24.17,23.78,41.42,48.48,34.35l106.05-49.37,109.52,49.97c24.77,5.67,45.34-12.65,46.61-36.88l-13.88-116.46,78.4-84.58c15.48-20.94,7.69-46.72-15.62-57.01l-118.57-23.63Z"/>
  <path class="cls-2" d="M591.42,385.84l129.21,25.75c25.41,11.21,33.9,39.3,17.03,62.13l-85.43,92.17,15.13,126.91c-1.39,26.4-23.81,46.36-50.8,40.19l-119.35-54.46-115.57,53.81c-26.91,7.71-49.74-11.1-52.83-37.43l15.17-129.02-86.5-93.76c-16.16-22.34-5.57-52.47,20.14-61.15,37.67-12.71,88.31-12.71,127.1-25.22l60.44-110.46c16.45-23.08,49.4-23.13,65.89,0l60.38,110.54Z"/>
</svg>