<?xml version="1.0" encoding="UTF-8"?>
<svg id="Layer_1" data-name="Layer 1" xmlns="http://www.w3.org/2000/svg" viewBox="0 0 1000 1000">
  <path d="M735.58,257.51c-166.39-164-452.13-112.01-545.99,102.51-113.31,258.97,117.48,534.54,391.76,466.12,253.19-63.16,340.45-385.08,154.23-568.63ZM652.23,565.89l15.13,126.91c-1.39,26.4-23.81,46.36-50.8,40.19l-119.35-54.46-115.57,53.81c-26.91,7.71-49.74-11.1-52.83-37.43l15.17-129.02-86.5-93.76c-16.16-22.34-5.57-52.47,20.14-61.15,37.67-12.71,88.31-12.71,127.1-25.22l60.44-110.46c16.45-23.08,49.4-23.13,65.89,0l60.38,110.54,129.21,25.75c25.41,11.21,33.9,39.3,17.03,62.13l-85.43,92.17Z"/>
  <path d="M500,0C223.86,0,0,223.86,0,500s223.86,500,500,500,500-223.86,500-500S776.14,0,500,0ZM833.25,677.99c-132.68,249.47-485.51,269.97-647.23,37.88C21.66,479.99,173.84,143.04,460.49,119.58c302.83-24.79,516.99,287.22,372.76,558.42Z"/>
</svg>