<?xml version="1.0" encoding="UTF-8"?>
<svg id="Layer_1" data-name="Layer 1" xmlns="http://www.w3.org/2000/svg" viewBox="0 0 1000 1000">
  <defs>
    <style>
      .cls-1 {
        fill: #fff;
      }
    </style>
  </defs>
  <path class="cls-1" d="M992.26,9.8v977.33l-.68,2.39v-484.39c-4.13-.4-3.42,4.16-4.64,6.65-47.62,97.11-131.25,196.01-222.95,255.28-159.29,102.93-362.3,104.75-523.17,4.1-93.84-58.71-172.35-150.4-223.34-248.04-1.78-3.41-4.48-7.48-6.14-10.97-1.15-2.41-.92-6.64-4.27-7.02v-9.58c3.36-.38,3.12-4.61,4.27-7.02,31.75-66.33,85.92-137.75,139.48-188.92,129.8-124.01,301.73-173.73,478.2-127.36,153.32,40.28,289.32,176.77,357.93,316.66,1.22,2.49.52,7.06,4.64,6.65V9.8h.69-.02ZM677.99,630.79c59.42-81.6,55.45-193.38-7.99-271.03-58.55-71.67-158.86-99.77-246.77-67.54-119.82,43.93-178.9,180.72-126.17,298.18,49.95,111.27,179.99,162.32,292.43,111.65,30.97-13.96,58.88-34.61,80.51-61.11,2.61-3.2,5.65-6.92,7.99-10.13v-.02Z"/>
  <path class="cls-1" d="M397.27,430.09c33.74-49.09,98.66-66.75,153.02-41.61,100.64,46.55,94.2,190.56-10.25,227.84-112.41,40.12-210.2-88.1-142.77-186.23h0Z"/>
</svg>